<?xml version="1.0" encoding="iso-8859-1"?>
<!-- Generator: Adobe Illustrator 17.1.0, SVG Export Plug-In . SVG Version: 6.00 Build 0)  -->
<!DOCTYPE svg PUBLIC "-//W3C//DTD SVG 1.1//EN" "http://www.w3.org/Graphics/SVG/1.1/DTD/svg11.dtd">
<svg version="1.1" id="Capa_1" xmlns="http://www.w3.org/2000/svg" xmlns:xlink="http://www.w3.org/1999/xlink" x="0px" y="0px"
	 viewBox="0 0 512 512" style="enable-background:new 0 0 512 512;" xml:space="preserve">
<g>
	<path d="M437.022,74.984C388.67,26.63,324.381,0,256,0C187.624,0,123.338,26.63,74.984,74.984S0,187.624,0,256
		c0,68.388,26.63,132.678,74.984,181.028C123.335,485.375,187.621,512,256,512c68.385,0,132.673-26.625,181.021-74.972
		C485.372,388.679,512,324.389,512,256C512,187.623,485.372,123.336,437.022,74.984z M425.708,425.714
		C380.381,471.039,320.111,496,256,496c-64.106,0-124.374-24.961-169.703-70.286C40.965,380.386,16,320.113,16,256
		c0-64.102,24.965-124.37,70.297-169.703C131.63,40.965,191.898,16,256,16c64.108,0,124.378,24.965,169.708,70.297
		C471.037,131.628,496,191.896,496,256C496,320.115,471.037,380.387,425.708,425.714z"/>
	<path d="M430.038,114.969c-2.784-3.432-7.821-3.957-11.253-1.172c-3.431,2.784-3.956,7.822-1.172,11.252
		C447.526,161.919,464,208.426,464,256c0,55.567-21.635,107.803-60.919,147.085C363.797,442.367,311.563,464,256,464
		c-51.26,0-100.505-18.807-138.663-52.956c-3.292-2.946-8.35-2.665-11.296,0.626c-2.946,3.292-2.666,8.35,0.626,11.296
		C147.763,459.745,200.797,480,256,480c59.837,0,116.089-23.297,158.394-65.601C456.701,372.095,480,315.84,480,256
		C480,204.767,462.256,154.681,430.038,114.969z"/>
	<path d="M48,256c0-114.691,93.309-208,208-208c51.26,0,100.504,18.808,138.662,52.959c3.293,2.948,8.351,2.667,11.296-0.625
		c2.947-3.292,2.667-8.35-0.625-11.296C364.237,52.256,311.203,32,256,32c-59.829,0-116.08,23.301-158.389,65.611
		C55.301,139.921,32,196.171,32,256c0,51.239,17.744,101.328,49.963,141.038c1.581,1.949,3.889,2.96,6.217,2.96
		c1.771,0,3.553-0.585,5.036-1.788c3.431-2.784,3.956-7.822,1.172-11.253C64.474,350.088,48,303.58,48,256z"/>
	<path d="M378.664,233.281l-1.911-3.974c-0.539-1.12-1.331-2.1-2.314-2.86l-3.178-2.458c-3.943-3.094-9.624-3.229-17.486-3.415
		c-3.936-0.093-11.188-0.265-13.305-1.31c-1.529-1.694-2.241-7.044-2.993-12.698l-0.23-1.718
		c-2.031-15.696-3.585-19.434-6.155-24.69c-0.309-0.631-0.636-1.298-1.012-2.111c-11.254-23.815-40.932-41.236-61.975-43.718
		c-0.311-0.037-0.624-0.055-0.937-0.055h-50.41c-44.162,0-80.09,35.829-80.09,79.869v83.839c0,43.972,35.928,79.746,80.09,79.746
		h82.815c43.922,0,79.856-35.754,80.103-79.685l0.445-58.073c0.005-0.576-0.053-1.15-0.172-1.713l-0.667-3.159
		C379.149,234.469,378.942,233.86,378.664,233.281z M363.675,297.936c-0.197,35.174-28.954,63.791-64.103,63.791h-82.815
		c-35.339,0-64.09-28.596-64.09-63.746v-83.839c0-35.218,28.751-63.869,64.09-63.869h49.916c16.52,2.157,40.51,16.771,48.912,34.55
		c0.402,0.869,0.777,1.637,1.133,2.364c1.789,3.657,2.868,5.865,4.667,19.757l0.232,1.732c1.223,9.188,2.278,17.124,8.232,22.571
		c5.393,4.892,14.622,5.11,23.547,5.321c2.826,0.067,6.983,0.166,8.65,0.52l1.107,0.856l0.673,1.4l0.289,1.367L363.675,297.936z"/>
	<path d="M217.67,236.456h39.972c12.025,0,21.808-9.755,21.808-21.746c0-11.978-9.783-21.723-21.808-21.723H217.67
		c-12.019,0-21.796,9.745-21.796,21.723C195.874,226.701,205.651,236.456,217.67,236.456z M217.67,208.988h39.972
		c3.203,0,5.808,2.567,5.808,5.723c0,3.114-2.66,5.746-5.808,5.746H217.67c-3.142,0-5.796-2.631-5.796-5.746
		C211.874,211.555,214.474,208.988,217.67,208.988z"/>
	<path d="M298.881,275.247H217.67c-12.019,0-21.796,9.722-21.796,21.672c0,11.951,9.777,21.673,21.796,21.673h81.211
		c11.985,0,21.735-9.722,21.735-21.673C320.616,284.969,310.866,275.247,298.881,275.247z M298.881,302.592H217.67
		c-3.142,0-5.796-2.598-5.796-5.673c0-3.128,2.6-5.672,5.796-5.672h81.211c3.163,0,5.735,2.544,5.735,5.672
		C304.616,299.995,301.99,302.592,298.881,302.592z"/>
</g>
<g>
</g>
<g>
</g>
<g>
</g>
<g>
</g>
<g>
</g>
<g>
</g>
<g>
</g>
<g>
</g>
<g>
</g>
<g>
</g>
<g>
</g>
<g>
</g>
<g>
</g>
<g>
</g>
<g>
</g>
</svg>
