<?xml version="1.0" encoding="iso-8859-1"?>
<!-- Generator: Adobe Illustrator 17.1.0, SVG Export Plug-In . SVG Version: 6.00 Build 0)  -->
<!DOCTYPE svg PUBLIC "-//W3C//DTD SVG 1.1//EN" "http://www.w3.org/Graphics/SVG/1.1/DTD/svg11.dtd">
<svg version="1.1" id="Capa_1" xmlns="http://www.w3.org/2000/svg" xmlns:xlink="http://www.w3.org/1999/xlink" x="0px" y="0px"
	 viewBox="0 0 512 512" style="enable-background:new 0 0 512 512;" xml:space="preserve">
<g>
	<path d="M437.022,74.984C388.67,26.63,324.381,0,256,0C187.624,0,123.338,26.63,74.984,74.984S0,187.624,0,256
		c0,68.388,26.63,132.678,74.984,181.028C123.335,485.375,187.621,512,256,512c68.385,0,132.673-26.625,181.021-74.972
		C485.372,388.679,512,324.389,512,256C512,187.623,485.372,123.336,437.022,74.984z M425.708,425.714
		C380.381,471.039,320.111,496,256,496c-64.106,0-124.374-24.961-169.703-70.286C40.965,380.386,16,320.113,16,256
		c0-64.102,24.965-124.37,70.297-169.703C131.63,40.965,191.898,16,256,16c64.108,0,124.378,24.965,169.708,70.297
		C471.037,131.628,496,191.896,496,256C496,320.115,471.037,380.387,425.708,425.714z"/>
	<path d="M430.038,114.969c-2.783-3.432-7.821-3.957-11.253-1.172c-3.431,2.784-3.956,7.822-1.172,11.252
		C447.526,161.919,464,208.426,464,256c0,55.567-21.635,107.803-60.919,147.085C363.797,442.367,311.563,464,256,464
		c-51.26,0-100.505-18.807-138.663-52.956c-3.292-2.946-8.35-2.666-11.296,0.626c-2.946,3.292-2.666,8.35,0.626,11.296
		C147.763,459.745,200.797,480,256,480c59.837,0,116.089-23.297,158.394-65.601C456.701,372.095,480,315.84,480,256
		C480,204.767,462.256,154.681,430.038,114.969z"/>
	<path d="M48,256c0-114.691,93.309-208,208-208c51.26,0,100.504,18.808,138.662,52.959c3.293,2.948,8.351,2.666,11.296-0.625
		c2.947-3.292,2.667-8.35-0.625-11.296C364.237,52.256,311.203,32,256,32c-59.829,0-116.08,23.301-158.389,65.611
		C55.301,139.921,32,196.171,32,256c0,51.239,17.744,101.328,49.963,141.038c1.581,1.949,3.889,2.96,6.217,2.96
		c1.771,0,3.553-0.585,5.036-1.788c3.431-2.784,3.956-7.822,1.172-11.253C64.474,350.088,48,303.58,48,256z"/>
	<path d="M188.649,390.892l0.078,0.527c0.544,3.961,3.382,7.186,7.252,8.23c0.887,0.239,1.785,0.355,2.672,0.355
		c3.095,0,6.059-1.415,8.002-3.943l0.29-0.371c6.659-8.485,22.811-30.625,28.956-52.897c1.103-4.02,4.533-17.469,7.254-28.195
		c9.037,6.702,21.311,10.905,33.576,10.905c26.298,0,49.937-11.82,66.56-33.282C359.225,271.65,368,243.077,368,211.767
		c0-24.85-10.646-49.326-29.21-67.154c-19.655-18.875-46.817-29.271-76.485-29.271c-45.115,0-72.94,18.565-88.339,34.139
		c-19.043,19.26-29.965,44.864-29.965,70.245c0,32.235,13.676,57.05,36.57,66.375c3.941,1.613,8.026,1.54,11.505-0.208
		c3.46-1.738,5.946-4.96,6.98-8.995c0.355-1.331,0.938-3.648,1.533-6.013c0.612-2.435,1.237-4.921,1.627-6.375
		c1.916-7.225,0.127-11.138-3.851-15.841c-5.657-6.665-8.292-14.629-8.292-25.065c0-17.535,6.462-33.882,18.196-46.03
		c12.577-13.021,29.793-19.903,49.787-19.903c34.672,0,56.211,19.596,56.211,51.14c0,41.53-17.979,74.061-40.931,74.061
		c-5.677,0-10.74-2.285-13.89-6.269c-2.926-3.701-3.876-8.534-2.674-13.607c1.613-6.802,3.818-13.96,5.952-20.882
		c4.045-13.125,7.865-25.523,7.865-35.738c0-18.625-11.569-31.139-28.788-31.139c-21.181,0-37.772,21.054-37.772,47.931
		c0,11.66,2.846,20.738,4.549,25.126c-3.037,12.86-16.625,70.407-19.261,81.521C184.104,351.844,186.661,377.537,188.649,390.892z
		 M204.889,333.506c2.971-12.528,19.866-84.084,19.866-84.084c0.424-1.797,0.193-3.727-0.616-5.386
		c-0.041-0.084-4.107-8.565-4.107-20.867c0-17.905,9.563-31.931,21.772-31.931c11.126,0,12.788,9.485,12.788,15.139
		c0,7.805-3.476,19.084-7.156,31.025c-2.21,7.171-4.495,14.586-6.229,21.905c-2.354,9.935-0.333,19.602,5.692,27.221
		c6.204,7.846,15.841,12.345,26.44,12.345c16.828,0,31.874-10.073,42.367-28.363c9.392-16.371,14.563-38.282,14.563-61.698
		c0-19.332-6.567-35.927-18.992-47.992c-12.901-12.527-31.303-19.148-53.219-19.148c-24.087,0-45.855,8.803-61.295,24.788
		c-14.63,15.146-22.688,35.441-22.688,57.146c0,14.246,3.956,25.832,12.084,35.408c0.326,0.386,0.558,0.675,0.721,0.888
		c-0.032,0.135-0.072,0.296-0.122,0.486c-0.399,1.486-1.049,4.069-1.685,6.599c-0.283,1.128-0.564,2.245-0.817,3.24
		c-15.454-7.631-24.255-25.852-24.255-50.5c0-21.203,9.237-42.707,25.343-58.996c13.255-13.407,37.368-29.388,76.961-29.388
		c25.515,0,48.742,8.812,65.402,24.811C343.146,170.979,352,191.25,352,211.767c0,27.782-7.585,52.875-21.359,70.657
		c-13.722,17.715-32.364,27.08-53.911,27.08c-14.074,0-26.848-7.754-30.612-14.938c-1.539-2.938-4.726-4.619-8.026-4.232
		c-3.294,0.39-6.006,2.772-6.817,5.988c-0.09,0.354-8.968,35.544-10.802,42.227c-3.543,12.842-11.138,25.946-17.637,35.596
		C201.625,358.691,202.315,344.374,204.889,333.506z"/>
</g>
<g>
</g>
<g>
</g>
<g>
</g>
<g>
</g>
<g>
</g>
<g>
</g>
<g>
</g>
<g>
</g>
<g>
</g>
<g>
</g>
<g>
</g>
<g>
</g>
<g>
</g>
<g>
</g>
<g>
</g>
</svg>
