<?xml version="1.0" encoding="iso-8859-1"?>
<!-- Generator: Adobe Illustrator 17.1.0, SVG Export Plug-In . SVG Version: 6.00 Build 0)  -->
<!DOCTYPE svg PUBLIC "-//W3C//DTD SVG 1.1//EN" "http://www.w3.org/Graphics/SVG/1.1/DTD/svg11.dtd">
<svg version="1.1" id="Capa_1" xmlns="http://www.w3.org/2000/svg" xmlns:xlink="http://www.w3.org/1999/xlink" x="0px" y="0px"
	 viewBox="0 0 512 512" style="enable-background:new 0 0 512 512;" xml:space="preserve">
<g>
	<path d="M437.022,74.984C388.67,26.63,324.381,0,256,0C187.624,0,123.338,26.63,74.984,74.984S0,187.624,0,256
		c0,68.388,26.63,132.678,74.984,181.028C123.335,485.375,187.621,512,256,512c68.385,0,132.673-26.625,181.021-74.972
		C485.372,388.679,512,324.389,512,256C512,187.623,485.372,123.336,437.022,74.984z M425.708,425.714
		C380.381,471.039,320.111,496,256,496c-64.106,0-124.374-24.961-169.703-70.286C40.965,380.386,16,320.113,16,256
		c0-64.102,24.965-124.37,70.297-169.703C131.63,40.965,191.898,16,256,16c64.108,0,124.378,24.965,169.708,70.297
		C471.037,131.628,496,191.896,496,256C496,320.115,471.037,380.387,425.708,425.714z"/>
	<path d="M430.038,114.969c-2.783-3.432-7.821-3.957-11.253-1.172c-3.431,2.784-3.956,7.822-1.172,11.252
		C447.526,161.919,464,208.426,464,256c0,55.567-21.635,107.803-60.919,147.085C363.797,442.367,311.563,464,256,464
		c-51.26,0-100.505-18.807-138.663-52.956c-3.292-2.946-8.35-2.665-11.296,0.626c-2.946,3.292-2.666,8.35,0.626,11.296
		C147.763,459.745,200.797,480,256,480c59.837,0,116.089-23.297,158.394-65.601C456.701,372.095,480,315.84,480,256
		C480,204.767,462.256,154.681,430.038,114.969z"/>
	<path d="M48,256c0-114.691,93.309-208,208-208c51.26,0,100.504,18.808,138.662,52.959c3.293,2.948,8.351,2.667,11.296-0.625
		c2.947-3.292,2.667-8.35-0.625-11.296C364.237,52.256,311.203,32,256,32c-59.829,0-116.08,23.301-158.389,65.611
		C55.301,139.921,32,196.171,32,256c0,51.239,17.744,101.328,49.963,141.038c1.581,1.949,3.889,2.96,6.217,2.96
		c1.771,0,3.553-0.585,5.036-1.788c3.431-2.784,3.956-7.822,1.172-11.253C64.474,350.088,48,303.58,48,256z"/>
	<path d="M196.129,365.074c3.139,7.766,8.681,15.089,16.514,21.799c7.668,6.485,16.921,11.531,27.521,15.005
		c10.215,3.317,18.378,5.115,32.241,5.115c11.61,0,22.653-1.183,32.857-3.523c10.078-2.36,21.387-6.445,33.614-12.14
		c2.819-1.313,4.622-4.142,4.622-7.252v-43.184c0-2.936-1.608-5.635-4.189-7.034c-2.581-1.399-5.721-1.271-8.18,0.332
		c-12.421,8.097-24.991,12.203-37.362,12.203c-6.442,0-11.972-1.411-16.906-4.314c-0.002-0.001-0.005-0.003-0.007-0.004
		c-3.089-1.813-6.066-5.08-7.076-7.758c-1.008-2.682-0.996-11.212-0.98-22.011l0.004-66.93h55.865c4.418,0,8-3.582,8-8V188.5
		c0-4.418-3.582-8-8-8h-55.865v-55.329c0-4.418-3.582-8-8-8h-39.278c-4.037,0-7.441,3.007-7.939,7.013
		c-1.633,13.132-4.61,23.976-8.854,32.24c-4.227,8.261-9.678,15.139-16.671,21.031c-5.535,4.674-15.363,9.347-28.421,13.513
		c-3.317,1.058-5.568,4.14-5.568,7.622v38.788c0,4.418,3.582,8,8,8h29.51v88.028C191.58,347.09,193.066,357.443,196.129,365.074z
		 M170.07,229.377v-25.034c12.486-4.406,21.993-9.328,28.306-14.658c8.525-7.183,15.456-15.922,20.593-25.962
		c4.283-8.34,7.459-18.593,9.471-30.551h24.361V188.5c0,4.418,3.582,8,8,8h55.865v32.877h-55.865c-4.418,0-8,3.582-8,8v70.208
		l-0.004,4.698c-0.021,14.345-0.032,22.248,2.006,27.67c2.309,6.124,7.655,12.223,13.95,15.919
		c7.356,4.327,15.772,6.521,25.013,6.521c11.307,0,22.607-2.642,33.731-7.87v24.393c-9.436,4.143-18.121,7.155-25.849,8.965
		c-8.997,2.063-18.836,3.11-29.245,3.11c-11.799,0-18.451-1.459-27.279-4.326c-8.611-2.822-16.064-6.863-22.112-11.978
		c-5.827-4.993-9.881-10.245-12.043-15.593c-2.25-5.604-3.39-14.247-3.39-25.691v-96.028c0-4.418-3.582-8-8-8H170.07z"/>
</g>
<g>
</g>
<g>
</g>
<g>
</g>
<g>
</g>
<g>
</g>
<g>
</g>
<g>
</g>
<g>
</g>
<g>
</g>
<g>
</g>
<g>
</g>
<g>
</g>
<g>
</g>
<g>
</g>
<g>
</g>
</svg>
